<svg xmlns="http://www.w3.org/2000/svg" version="1.1" xmlns:xlink="http://www.w3.org/1999/xlink" xmlns:svgjs="http://svgjs.com/svgjs" width="1440" height="820" preserveAspectRatio="none" viewBox="0 0 1440 820"><g mask="url(&quot;#SvgjsMask1846&quot;)" fill="none"><rect width="1440" height="820" x="0" y="0" fill="rgba(65, 65, 76, 1)"></rect><circle r="113.21229842979618" cx="1343.13" cy="156.78" stroke="rgba(225, 227, 229, 1)" stroke-width="1.6" stroke-dasharray="3, 3"></circle><circle r="92.24495292575452" cx="965.15" cy="499.37" stroke="rgba(241, 151, 44, 1)" stroke-width="1"></circle><path d="M1577.9199999999998 203.22000000000003 L1400.24 281.79L1585.464779077856 338.8897790778561z" stroke="rgba(241, 151, 44, 1)" stroke-width="1.8" stroke-dasharray="2, 2"></path><rect width="60" height="60" clip-path="url(&quot;#SvgjsClipPath1847&quot;)" x="378.57" y="196.96" fill="url(#SvgjsPattern1848)" transform="rotate(128.39, 408.57, 226.96)"></rect><path d="M1377.07 636.37L1364.69 633.11 1365.16 620.31 1352.78 617.04 1353.24 604.24 1340.86 600.98 1341.33 588.18M1383.5 631.61L1371.11 628.34 1371.58 615.54 1359.2 612.28 1359.67 599.48 1347.29 596.21 1347.76 583.41M1389.92 626.84L1377.54 623.57 1378.01 610.78 1365.63 607.51 1366.1 594.71 1353.71 591.45 1354.18 578.65" stroke="rgba(225, 227, 229, 1)" stroke-width="2.02"></path><path d="M349.99 583.14 L269.9 695.8199999999999L243.88538314963395 573.420383149634z" stroke="rgba(241, 151, 44, 1)" stroke-width="1" stroke-dasharray="3, 3"></path><circle r="81.34317507793405" cx="124.63" cy="418.78" stroke="rgba(241, 151, 44, 1)" stroke-width="1"></circle><path d="M493.92 160.35a5.6 5.6 0 1 0 6.76 8.93 5.6 5.6 0 1 0-6.76-8.93zM503.58 173.11a5.6 5.6 0 1 0 6.76 8.93 5.6 5.6 0 1 0-6.76-8.93zM513.24 185.87a5.6 5.6 0 1 0 6.75 8.93 5.6 5.6 0 1 0-6.75-8.93zM522.89 198.62a5.6 5.6 0 1 0 6.76 8.93 5.6 5.6 0 1 0-6.76-8.93zM461.85 144.49a5.6 5.6 0 1 0 6.76 8.93 5.6 5.6 0 1 0-6.76-8.93zM471.51 157.25a5.6 5.6 0 1 0 6.76 8.93 5.6 5.6 0 1 0-6.76-8.93zM481.17 170.01a5.6 5.6 0 1 0 6.76 8.93 5.6 5.6 0 1 0-6.76-8.93zM490.82 182.76a5.6 5.6 0 1 0 6.76 8.93 5.6 5.6 0 1 0-6.76-8.93zM429.79 128.63a5.6 5.6 0 1 0 6.75 8.93 5.6 5.6 0 1 0-6.75-8.93zM439.44 141.39a5.6 5.6 0 1 0 6.76 8.93 5.6 5.6 0 1 0-6.76-8.93zM449.1 154.15a5.6 5.6 0 1 0 6.76 8.93 5.6 5.6 0 1 0-6.76-8.93zM458.75 166.9a5.6 5.6 0 1 0 6.76 8.93 5.6 5.6 0 1 0-6.76-8.93z" stroke="rgba(225, 227, 229, 1)" stroke-width="1" stroke-dasharray="3, 3"></path></g><defs><mask id="SvgjsMask1846"><rect width="1440" height="820" fill="#ffffff"></rect></mask><pattern x="0" y="0" width="6" height="6" patternUnits="userSpaceOnUse" id="SvgjsPattern1848"><path d="M3 1L3 5M1 3L5 3" stroke="rgba(241, 151, 44, 1)" fill="none" stroke-width="1.71"></path></pattern><clipPath id="SvgjsClipPath1847"><circle r="15" cx="408.57" cy="226.96"></circle></clipPath></defs></svg>